<svg width="104" height="46" viewBox="0 0 104 46" fill="none" xmlns="http://www.w3.org/2000/svg">
<path d="M46.6513 11.5233C45.2095 11.5233 43.9536 11.0081 42.9304 9.9775C41.9071 8.94695 41.3955 7.68219 41.3955 6.23005C41.3955 4.77791 41.9071 3.51314 42.9304 2.48259C43.9536 1.45204 45.2095 0.936768 46.6513 0.936768H52.5118V4.68422H46.6513C46.2327 4.68422 45.8606 4.82475 45.5815 5.15265C45.3025 5.43371 45.1164 5.80846 45.1164 6.23005C45.1164 6.65164 45.256 7.02638 45.5815 7.30744C45.8606 7.5885 46.2327 7.77587 46.6513 7.77587H48.5118C49.9536 7.77587 51.2094 8.29115 52.2327 9.3217C53.256 10.3522 53.7676 11.617 53.7676 13.0692C53.7676 14.5213 53.256 15.7861 52.2327 16.8166C51.2094 17.8472 49.9536 18.3624 48.5118 18.3624H42.6513V14.6618H48.5118C48.9304 14.6618 49.3025 14.5213 49.5815 14.1934C49.8606 13.9123 50.0467 13.5376 50.0467 13.116C50.0467 12.6944 49.9071 12.3197 49.5815 12.0386C49.3025 11.7575 48.9304 11.5702 48.5118 11.5702H46.6513V11.5233Z" fill="#E13C29"/>
<path d="M72.0005 18.3625V0.983643H79.0702C80.5121 0.983643 81.7679 1.49892 82.7912 2.52947C83.8144 3.56002 84.3261 4.82478 84.3261 6.27692C84.3261 7.58853 83.9075 8.71277 83.0702 9.69648C83.9075 10.6333 84.2795 11.8044 84.2795 13.116C84.2795 14.5682 83.7679 15.8329 82.7447 16.8635C81.7214 17.894 80.4656 18.4093 79.0237 18.4093H72.0005V18.3625ZM75.7214 4.68425V7.7759H79.1168C79.5354 7.7759 79.9075 7.63538 80.1865 7.30747C80.4656 7.02641 80.6516 6.65167 80.6516 6.23008C80.6516 5.80849 80.5121 5.43375 80.1865 5.15269C79.9075 4.87163 79.5354 4.68425 79.1168 4.68425H75.7214ZM75.7214 11.5234V14.615H79.0702C79.4889 14.615 79.8609 14.4745 80.14 14.1466C80.4191 13.8655 80.6051 13.4908 80.6051 13.0692C80.6051 12.6476 80.4656 12.2729 80.14 11.9918C79.8609 11.7107 79.4889 11.5234 79.0702 11.5234H75.7214Z" fill="#E13C29"/>
<path d="M56.186 13.0223L62.8372 0.936768L72.279 18.2687H68L63.8604 10.5865L56.186 13.0223Z" fill="#E13C29"/>
<path d="M53.3955 18.2688L54.7909 15.6925L59.9536 14.0061L57.6746 18.2688H53.3955Z" fill="#E13C29"/>
<path d="M86.8828 13.0223L93.534 0.936768L102.976 18.2687H98.6967L94.5572 10.5865L86.8828 13.0223Z" fill="#E13C29"/>
<path d="M84.0923 18.2688L85.4411 15.6925L90.6504 14.0061L88.3713 18.2688H84.0923Z" fill="#E13C29"/>
<path d="M45.2095 29.0426C44.1397 29.0426 43.256 28.6679 42.5118 27.9184C41.7676 27.1689 41.3955 26.2789 41.3955 25.2015C41.3955 24.1241 41.7676 23.2341 42.5118 22.4846C43.256 21.7351 44.1397 21.3604 45.2095 21.3604H49.442V24.0773H45.2095C44.8839 24.0773 44.6513 24.1709 44.4188 24.4052C44.1862 24.6394 44.0932 24.8736 44.0932 25.2015C44.0932 25.5294 44.1862 25.7636 44.4188 25.9978C44.6513 26.232 44.8839 26.3257 45.2095 26.3257H46.5583C47.6281 26.3257 48.5118 26.7005 49.256 27.45C50.0001 28.1995 50.3722 29.0895 50.3722 30.1669C50.3722 31.2443 50.0001 32.1343 49.256 32.8838C48.5118 33.6333 47.6281 34.008 46.5583 34.008H42.3257V31.2911H46.5583C46.8839 31.2911 47.1164 31.1974 47.349 30.9632C47.5815 30.729 47.6746 30.4948 47.6746 30.1669C47.6746 29.839 47.5815 29.6048 47.349 29.3705C47.1164 29.1363 46.8839 29.0426 46.5583 29.0426H45.2095V29.0426Z" fill="#3B3A3C"/>
<path d="M54.2791 29.0427V34.008H51.6279V21.4072H56.7442C57.814 21.4072 58.6977 21.782 59.4419 22.5315C60.1861 23.281 60.5581 24.171 60.5581 25.2484C60.5581 26.3258 60.1861 27.2158 59.4419 27.9653C58.6977 28.7148 57.814 29.0427 56.7442 29.0427H54.2791ZM54.2791 24.1241V26.3726H56.7442C57.0698 26.3726 57.3023 26.2789 57.5349 26.0447C57.7675 25.8105 57.8605 25.5763 57.8605 25.2484C57.8605 24.9205 57.7675 24.6863 57.5349 24.452C57.3023 24.2178 57.0698 24.1241 56.7442 24.1241H54.2791V24.1241Z" fill="#3B3A3C"/>
<path d="M78.2328 29.0427V34.008H75.5352V21.4072H80.6514C81.7212 21.4072 82.6049 21.782 83.3491 22.5315C84.0933 23.281 84.4654 24.171 84.4654 25.2484C84.4654 26.3258 84.0933 27.2158 83.3491 27.9653C83.07 28.2463 82.7445 28.5274 82.3724 28.6679L84.9305 34.008H81.9538L79.6747 29.0427H78.2328ZM78.2328 24.1241V26.3726H80.6979C81.0235 26.3726 81.2561 26.2789 81.4886 26.0447C81.7212 25.8105 81.8142 25.5763 81.8142 25.2484C81.8142 24.9205 81.7212 24.6863 81.4886 24.452C81.2561 24.2178 81.0235 24.1241 80.6979 24.1241H78.2328V24.1241Z" fill="#3B3A3C"/>
<path d="M91.116 24.1241V34.008H88.4184V24.1241H85.7207V21.4072H93.7672V24.1241H91.116Z" fill="#3B3A3C"/>
<path d="M98.8374 29.0426C97.7676 29.0426 96.8839 28.6679 96.1397 27.9184C95.3955 27.1689 95.0234 26.2789 95.0234 25.2015C95.0234 24.1241 95.3955 23.2341 96.1397 22.4846C96.8839 21.7351 97.7676 21.3604 98.8374 21.3604H103.07V24.0773H98.8374C98.5118 24.0773 98.2792 24.1709 98.0467 24.4052C97.8141 24.6394 97.7211 24.8736 97.7211 25.2015C97.7211 25.5294 97.8141 25.7636 98.0467 25.9978C98.2792 26.232 98.5118 26.3257 98.8374 26.3257H100.186C101.256 26.3257 102.14 26.7005 102.884 27.45C103.628 28.1995 104 29.0895 104 30.1669C104 31.2443 103.628 32.1343 102.884 32.8838C102.14 33.6333 101.256 34.008 100.186 34.008H95.9537V31.2911H100.186C100.512 31.2911 100.744 31.1974 100.977 30.9632C101.209 30.729 101.302 30.4948 101.302 30.1669C101.302 29.839 101.209 29.6048 100.977 29.3705C100.744 29.1363 100.512 29.0426 100.186 29.0426H98.8374V29.0426Z" fill="#3B3A3C"/>
<path d="M66.279 24.5928L63.3488 23.6091C62.9302 24.0776 62.6046 24.5928 62.3721 25.1081L64.9302 25.9513C65.2558 25.3892 65.7674 24.9207 66.279 24.5928Z" fill="#3B3A3C"/>
<path d="M64.6972 28.8552C64.6507 28.7616 64.6507 28.6679 64.6042 28.5742C64.6042 28.4805 64.5577 28.4337 64.5577 28.34C64.5112 27.9652 64.4646 27.5905 64.5112 27.2157L61.953 26.3726C61.86 26.841 61.8135 27.2626 61.8135 27.7779C61.8135 27.9184 61.8135 28.0589 61.8135 28.1994L64.7437 29.1831C64.7437 29.0426 64.7437 28.9489 64.6972 28.8552Z" fill="#3B3A3C"/>
<path d="M72.5112 23.281C71.3019 22.0631 69.8136 21.4541 68.0926 21.4541C66.6973 21.4541 65.488 21.8288 64.4647 22.6252L66.1392 23.1873L69.3019 24.2647C71.2089 24.9205 72.2322 26.9816 71.6275 28.9022C70.9764 30.8227 68.9298 31.8533 67.0229 31.2443L62.2787 29.6517L62.1392 29.6048C62.4182 30.5885 62.9299 31.4785 63.7206 32.228C64.9299 33.446 66.4182 34.0549 68.1391 34.0549C69.8601 34.0549 71.3484 33.446 72.5577 32.228C73.767 31.0101 74.3717 29.5111 74.3717 27.7779C74.3717 25.9979 73.7205 24.4989 72.5112 23.281Z" fill="#3B3A3C"/>
<path d="M7.16236 17.0979C7.06934 17.8942 7.06934 18.6437 7.06934 19.4401C7.06934 21.548 7.34841 23.6091 7.81352 25.5297C10.9298 28.0592 14.6042 29.7456 18.5577 30.4014C19.6275 30.5887 20.7437 30.6824 21.8135 30.6824C23.953 30.1672 25.953 29.2771 27.767 28.1529C19.2554 28.0592 11.7205 23.7028 7.16236 17.0979Z" fill="url(#paint0_radial)"/>
<path d="M6.0459 24.7332C6.55753 25.8574 7.16218 26.9816 7.81334 28.059C7.90636 28.2464 8.0459 28.3869 8.13892 28.5743C7.81334 27.6843 7.53427 26.7943 7.30171 25.8574C6.88311 25.5295 6.4645 25.1547 6.0459 24.7332Z" fill="url(#paint1_radial)"/>
<path d="M8.04639 26.4663C8.41848 27.6842 8.83708 28.9022 9.39522 30.0264C11.4417 30.7759 13.6743 31.2443 15.9999 31.338C17.2557 31.3848 18.465 31.338 19.6743 31.1506C19.3022 31.1038 18.8836 31.0569 18.5115 31.0101C14.651 30.4011 11.1161 28.8085 8.04639 26.4663Z" fill="url(#paint2_radial)"/>
<path d="M7.11616 24.9673C6.74406 23.1872 6.51151 21.3603 6.51151 19.4866C6.51151 18.4561 6.55802 17.4255 6.69755 16.395C5.48825 14.4744 4.51151 12.4133 3.81384 10.2117C3.34872 14.8023 3.90686 19.2993 5.48825 23.3746C5.99988 23.9367 6.55802 24.452 7.11616 24.9673Z" fill="url(#paint3_radial)"/>
<path d="M17.7676 18.3625H15.9536V20.0021H17.7676C18.0001 20.0021 18.1862 19.9084 18.3722 19.7678C18.5117 19.6273 18.6048 19.3931 18.6048 19.1589C18.6048 18.9247 18.5117 18.7373 18.3722 18.5499C18.1862 18.4562 18.0001 18.3625 17.7676 18.3625Z" fill="url(#paint4_radial)"/>
<path d="M19.023 0C9.16259 0 1.1626 8.05703 1.1626 17.9878C1.1626 27.9185 9.16259 35.9756 19.023 35.9756C28.8835 35.9756 36.8835 27.9185 36.8835 17.9878C36.8835 8.05703 28.8835 0 19.023 0ZM32.1393 22.1568H29.9533L27.4416 17.5194L22.2788 19.3931L24.0463 16.2077L26.4184 11.8513L32.1393 22.1568ZM25.8602 4.40326L30.7439 13.3972H28.5114L26.3719 9.41548L22.4184 10.6802L25.8602 4.40326ZM21.6742 12.0855L24.3719 11.1955L23.1626 13.3972H20.93L21.6742 12.0855ZM21.5347 20.7984L24.2323 19.9084L23.023 22.11H20.7905L21.5347 20.7984ZM20.6044 15.6456C20.6044 16.3483 20.3719 16.9572 19.9533 17.4725C20.3719 17.9878 20.6044 18.5967 20.6044 19.2994C20.6044 20.0957 20.3254 20.7515 19.7672 21.3137C19.2091 21.8758 18.5579 22.1568 17.7672 22.1568H13.9998V15.0367H14.0463H15.9998V16.5356H17.8137C18.0463 16.5356 18.2323 16.442 18.4184 16.3014C18.5579 16.1609 18.6509 15.9267 18.6509 15.6925C18.6509 15.5051 18.5114 15.1772 18.4184 15.0367C19.1626 14.8493 19.7672 14.4277 20.1393 14.053C20.3719 14.4745 20.6044 15.0835 20.6044 15.6456ZM19.3951 4.35642V6.37067H16.1858C15.9533 6.37067 15.7672 6.46436 15.5812 6.60489C15.3951 6.79226 15.3486 6.97964 15.3486 7.21385C15.3486 7.44807 15.4416 7.63544 15.5812 7.82281C15.7672 8.01019 15.9533 8.05703 16.1858 8.05703H17.2091C17.9998 8.05703 18.6509 8.33809 19.2091 8.90021C19.7672 9.46233 20.0463 10.1181 20.0463 10.9145C20.0463 11.7108 19.7672 12.3666 19.2091 12.9287C18.6509 13.4908 17.9998 13.7719 17.2091 13.7719H13.9998V11.7576H17.2091C17.4416 11.7576 17.6277 11.664 17.8137 11.5234C17.9998 11.3361 18.0463 11.1487 18.0463 10.9145C18.0463 10.6802 17.9533 10.4929 17.8137 10.3055C17.6277 10.1181 17.4416 10.0713 17.2091 10.0713H16.1858C15.3951 10.0713 14.744 9.79023 14.1858 9.22811C13.6277 8.66599 13.3486 8.01019 13.3486 7.21385C13.3486 6.41752 13.6277 5.76171 14.1858 5.19959C14.744 4.63748 15.3951 4.35642 16.1858 4.35642H19.3951ZM33.3951 27.8717C33.1626 28.2464 32.8835 28.5743 32.6509 28.9023C29.4416 30.4949 25.8602 31.4318 22.1858 31.4318C22.0928 31.4318 21.9998 31.4318 21.9068 31.4318C20.2788 31.8534 18.5579 32.0407 16.7905 32.0407C16.5114 32.0407 16.2789 32.0407 15.9998 32.0407C13.8603 31.9471 11.8137 31.5723 9.86026 30.9165C11.1626 32.4155 12.5579 33.7271 14.1393 34.8513C13.5812 34.664 12.9765 34.4766 12.4649 34.2424C11.9068 33.7739 11.3486 33.2587 10.7905 32.7434C11.023 33.1181 11.2556 33.4929 11.4882 33.8208C8.51142 32.3686 5.9998 30.1202 4.27887 27.3096C5.48817 28.1996 6.7905 28.9959 8.18584 29.6517C7.90677 29.277 7.6277 28.8554 7.39515 28.4807C6.46492 26.9817 5.67422 25.4359 5.02306 23.7963C4.09283 22.8126 3.25562 21.7352 2.51143 20.5642C2.18585 20.0957 1.90678 19.6273 1.62771 19.1589C1.5812 18.7841 1.5812 18.4094 1.5812 17.9878C1.5812 14.7088 2.46492 11.6171 4.04631 8.99389C4.65096 11.3829 5.62771 13.5845 6.83701 15.6456C7.72073 9.93076 10.4649 4.82485 14.4649 1.03055C14.837 0.936864 15.2091 0.843178 15.5812 0.749491C11.1161 4.68432 8.09282 10.2118 7.30212 16.3951C11.7672 23.2342 19.4416 27.778 28.1858 27.778C28.3253 27.778 28.5114 27.778 28.6509 27.778C32.7905 24.8737 35.6277 20.4236 36.2788 15.3646C36.4184 16.2077 36.4649 17.0978 36.4649 18.0346C36.4649 21.6416 35.3951 25.0143 33.4881 27.8249C31.9532 28.1528 30.4184 28.3401 28.7905 28.387C27.3021 29.4175 25.7207 30.2607 23.9998 30.8697C27.3021 30.5418 30.5114 29.5112 33.3951 27.8717Z" fill="url(#paint5_radial)"/>
<path d="M0.60465 40.2852H2L1.76744 41.8778H4.74418L4.97674 40.2852H6.37208L5.76743 44.7821H4.37209L4.60464 43.0489H1.6279L1.39535 44.7353H0L0.60465 40.2852Z" fill="#E13C29"/>
<path d="M13.1623 42.4867C13.0227 43.5641 12.7902 44.2199 12.5111 44.4541C12.1855 44.6883 11.3483 44.782 9.90647 44.782C8.88322 44.782 8.18554 44.7351 7.85996 44.6883C7.48787 44.5946 7.25531 44.3604 7.16229 44.0793C7.11578 43.8451 7.16229 43.3298 7.25531 42.5335C7.39485 41.4561 7.62741 40.8003 7.90647 40.5661C8.23206 40.3319 9.06926 40.1914 10.5111 40.1914C11.9065 40.1914 12.7437 40.3319 13.0227 40.5193C13.3018 40.7535 13.3018 41.4093 13.1623 42.4867ZM8.65066 42.4867C8.55764 43.0488 8.60415 43.3767 8.69717 43.4704C8.83671 43.5641 9.25531 43.6109 10.046 43.6109C10.8367 43.6109 11.3018 43.5641 11.4414 43.4704C11.5809 43.3767 11.6739 43.0488 11.7669 42.4867C11.86 41.9246 11.8134 41.5498 11.7204 41.4561C11.5809 41.3624 11.1623 41.3156 10.3716 41.3156C9.58089 41.3156 9.11577 41.3624 8.97624 41.4561C8.83671 41.5966 8.74368 41.9246 8.65066 42.4867ZM10.2786 38.3176L11.6739 39.4419L11.3483 39.9103L9.6274 39.3013L10.2786 38.3176Z" fill="#E13C29"/>
<path d="M16.326 40.2852H18.6981L20.2795 44.7821H18.6981L18.3725 44.0326H15.6748L15.1632 44.7821H13.4888L16.326 40.2852ZM17.4423 41.2689H17.2097L16.2795 42.8615H17.9539L17.4423 41.2689Z" fill="#E13C29"/>
<path d="M27.3492 43.5641H27.4422H27.4887L29.6282 40.2383H31.1631L28.2794 44.7352H26.1864L24.605 40.2851H26.1399L27.3492 43.5641Z" fill="#E13C29"/>
<path d="M33.6744 40.285H36.0464L37.6278 44.782H36.0464L35.7209 44.0325H33.0232L32.5116 44.782H30.9302L33.6744 40.285ZM34.6046 38.3176L35.9999 39.4419L35.6744 39.9103L33.9534 39.3013L34.6046 38.3176ZM34.7906 41.2687H34.5581L33.5813 42.8146H35.2558L34.7906 41.2687Z" fill="#E13C29"/>
<path d="M44.6047 42.4867C44.4651 43.5641 44.2326 44.2199 43.9535 44.4541C43.6279 44.6884 42.7907 44.782 41.3489 44.782C40.3256 44.782 39.6279 44.7352 39.3023 44.6884C38.9303 44.5947 38.6977 44.3604 38.6047 44.0794C38.5582 43.8452 38.6047 43.3299 38.6977 42.5336C38.8372 41.4562 39.0698 40.8004 39.3489 40.5661C39.6744 40.3319 40.5116 40.1914 41.9535 40.1914C43.3489 40.1914 44.1861 40.3319 44.4651 40.5193C44.6977 40.7535 44.7442 41.4093 44.6047 42.4867ZM40.093 42.4867C40 43.0957 40 43.4236 40.1396 43.5173C40.2791 43.611 40.6977 43.6578 41.4884 43.6578C42.2791 43.6578 42.7442 43.611 42.8837 43.5173C43.0233 43.4236 43.1163 43.0957 43.2093 42.5336C43.3023 41.9714 43.2558 41.5967 43.1628 41.503C43.0233 41.4093 42.6047 41.3625 41.814 41.3625C41.0233 41.3625 40.5582 41.4093 40.4186 41.503C40.2791 41.5967 40.1396 41.9246 40.093 42.4867Z" fill="#E13C29"/>
<path d="M51.6745 40.1914C52.9303 40.1914 53.721 40.2851 54.0001 40.5193C54.2326 40.7067 54.2791 41.1751 54.1861 41.9714H52.7908C52.8373 41.6904 52.7908 41.5499 52.6512 41.4562C52.5117 41.3625 52.0931 41.3156 51.535 41.3156C50.8838 41.3156 50.4652 41.3625 50.3257 41.4562C50.1861 41.5499 50.0931 41.8778 50.0001 42.4399C49.9071 43.002 49.9536 43.3299 50.0466 43.4236C50.1396 43.5173 50.5117 43.5641 51.2094 43.5641C51.814 43.5641 52.1861 43.5173 52.3722 43.4704C52.5117 43.3767 52.6512 43.2362 52.6512 42.9552H54.0466C53.9536 43.7515 53.721 44.2668 53.4884 44.4073C53.1629 44.6415 52.3722 44.7352 51.0698 44.7352C49.7675 44.7352 49.0233 44.5947 48.7908 44.4073C48.5582 44.1731 48.5117 43.5173 48.6512 42.4399C48.7908 41.3625 49.0233 40.7067 49.3024 40.5193C49.628 40.3319 50.4187 40.1914 51.6745 40.1914Z" fill="#E13C29"/>
<path d="M61.0701 40.2852L60.698 43.0021C60.605 43.7984 60.3259 44.3137 59.9538 44.5479C59.6282 44.7353 58.8375 44.8289 57.5817 44.8289C56.3724 44.8289 55.6282 44.7353 55.3026 44.5479C54.9771 44.3137 54.884 43.8452 54.9771 43.0021L55.3492 40.2852H56.7445L56.3724 43.0021C56.3259 43.2831 56.3724 43.4705 56.5119 43.5173C56.698 43.611 57.0701 43.6579 57.7212 43.6579C58.3724 43.6579 58.7445 43.611 58.9305 43.5173C59.1166 43.4237 59.2096 43.2363 59.2561 43.0021L59.6282 40.2852H61.0701Z" fill="#E13C29"/>
<path d="M67.7209 42.4867C67.5813 43.5641 67.3488 44.2199 67.0697 44.4542C66.7441 44.6884 65.9069 44.7821 64.4651 44.7821C63.4418 44.7821 62.7441 44.7352 62.4186 44.6884C62.0465 44.5947 61.8139 44.3605 61.7209 44.0794C61.6744 43.8452 61.7209 43.3299 61.8139 42.5336C61.9534 41.4562 62.186 40.8004 62.4651 40.5662C62.7907 40.332 63.6279 40.1914 65.0697 40.1914C66.4651 40.1914 67.3023 40.332 67.5813 40.5193C67.8139 40.7535 67.8604 41.4093 67.7209 42.4867ZM63.1627 42.4867C63.0697 43.0489 63.1162 43.3768 63.2093 43.4705C63.3488 43.5641 63.7674 43.611 64.5581 43.611C65.3488 43.611 65.8139 43.5641 65.9534 43.4705C66.093 43.3768 66.186 43.0489 66.279 42.4867C66.372 41.9246 66.3255 41.5499 66.2325 41.4562C66.093 41.3625 65.6744 41.3157 64.8837 41.3157C64.093 41.3157 63.6279 41.3625 63.4883 41.4562C63.3953 41.5967 63.2558 41.9246 63.1627 42.4867ZM63.6279 39.6293L65.3023 38.7861L66.7441 39.6293L66.5116 40.0509L65.1627 39.6762L63.7209 40.0509L63.6279 39.6293ZM63.9069 45.0631H64.9302L64.7906 46H63.7674L63.9069 45.0631Z" fill="#E13C29"/>
<path d="M71.5812 40.1914C72.837 40.1914 73.6277 40.2851 73.9068 40.5193C74.1394 40.7067 74.1859 41.1751 74.0929 41.9714H72.6975C72.744 41.6904 72.6975 41.5499 72.558 41.4562C72.4184 41.3625 71.9998 41.3156 71.4417 41.3156C70.7905 41.3156 70.3719 41.3625 70.2324 41.4562C70.0929 41.5499 69.9998 41.8778 69.9068 42.4399C69.8138 43.002 69.8603 43.3299 69.9533 43.4236C70.0464 43.5173 70.4184 43.5641 71.1161 43.5641C71.7208 43.5641 72.0929 43.5173 72.2789 43.4704C72.4184 43.3767 72.558 43.2362 72.558 42.9552H73.9533C73.8603 43.7515 73.6277 44.2668 73.3952 44.4073C73.0696 44.6415 72.2789 44.7352 70.9766 44.7352C69.6743 44.7352 68.9301 44.5947 68.6975 44.4073C68.465 44.1731 68.4184 43.5173 68.558 42.4399C68.6975 41.3625 68.9301 40.7067 69.2091 40.5193C69.4882 40.3319 70.2789 40.1914 71.5812 40.1914Z" fill="#E13C29"/>
<path d="M81.07 40.1914C82.3258 40.1914 83.1165 40.2851 83.3956 40.5193C83.6281 40.7067 83.6747 41.1751 83.5816 41.9714H82.1863C82.2328 41.6904 82.1863 41.5499 82.0467 41.4562C81.9072 41.3625 81.4886 41.3156 80.9305 41.3156C80.2793 41.3156 79.8607 41.3625 79.7212 41.4562C79.5816 41.5499 79.4886 41.8778 79.3956 42.4399C79.3026 43.002 79.3491 43.3299 79.4421 43.4236C79.5351 43.5173 79.9072 43.5641 80.6049 43.5641C81.2095 43.5641 81.5816 43.5173 81.7677 43.4704C81.9072 43.3767 82.0467 43.2362 82.0467 42.9552H83.4421C83.3491 43.7515 83.1165 44.2668 82.884 44.4073C82.5584 44.6415 81.7677 44.7352 80.4654 44.7352C79.163 44.7352 78.4188 44.5947 78.1863 44.4073C77.9537 44.1731 77.9072 43.5173 78.0467 42.4399C78.1863 41.3625 78.4188 40.7067 78.6979 40.5193C79.0235 40.3319 79.8142 40.1914 81.07 40.1914Z" fill="#E13C29"/>
<path d="M84.7438 40.2852H86.1392L85.9066 41.8778H88.8833L89.1159 40.2852H90.5112L89.9066 44.7821H88.5113L88.7438 43.0489H85.7671L85.5345 44.7821H84.1392L84.7438 40.2852Z" fill="#E13C29"/>
<path d="M97.3024 42.4866C97.1629 43.564 96.9303 44.2198 96.6513 44.454C96.3257 44.6882 95.4885 44.7819 94.0466 44.7819C93.0234 44.7819 92.3257 44.7351 92.0001 44.6882C91.628 44.5945 91.3954 44.3603 91.3024 44.0793C91.2559 43.845 91.3024 43.3298 91.3954 42.5334C91.535 41.456 91.7675 40.8002 92.0466 40.566C92.3722 40.3318 93.2094 40.1913 94.6513 40.1913C96.0466 40.1913 96.8838 40.3318 97.1629 40.5192C97.3954 40.7534 97.4419 41.4092 97.3024 42.4866ZM92.7443 42.4866C92.6513 43.0487 92.6978 43.3766 92.7908 43.4703C92.9303 43.564 93.3489 43.6108 94.1396 43.6108C94.9303 43.6108 95.3954 43.564 95.535 43.4703C95.6745 43.3766 95.7675 43.0487 95.8606 42.4866C95.9536 41.9245 95.9071 41.5497 95.814 41.456C95.6745 41.3623 95.2559 41.3155 94.4652 41.3155C93.6745 41.3155 93.2094 41.3623 93.0699 41.456C92.9768 41.5966 92.8373 41.9245 92.7443 42.4866ZM96.3257 41.3623L96.2326 40.566L96.5582 40.285L97.2559 39.6292L98.0001 40.5192L97.3024 41.1281L97.2559 41.3623H96.3257Z" fill="#E13C29"/>
<path d="M97.814 44.7352L98.4186 40.2383H99.814L99.2093 44.7352H97.814Z" fill="#E13C29"/>
<path d="M102.232 43.6578H103.581L103.442 44.8289H102.046L102.232 43.6578ZM102.325 43.1425L102.744 40.1914H104L103.581 43.1425H102.325Z" fill="#E13C29"/>
<defs>
<radialGradient id="paint0_radial" cx="0" cy="0" r="1" gradientUnits="userSpaceOnUse" gradientTransform="translate(30.0323 3.83842) scale(35.5693 35.8229)">
<stop stop-color="#BCBEC0"/>
<stop offset="0.4152" stop-color="#545557"/>
<stop offset="1"/>
</radialGradient>
<radialGradient id="paint1_radial" cx="0" cy="0" r="1" gradientUnits="userSpaceOnUse" gradientTransform="translate(30.0321 3.83822) scale(35.5693 35.8229)">
<stop stop-color="#BCBEC0"/>
<stop offset="0.4152" stop-color="#545557"/>
<stop offset="1"/>
</radialGradient>
<radialGradient id="paint2_radial" cx="0" cy="0" r="1" gradientUnits="userSpaceOnUse" gradientTransform="translate(30.0326 3.83821) scale(35.5693 35.8229)">
<stop stop-color="#BCBEC0"/>
<stop offset="0.4152" stop-color="#545557"/>
<stop offset="1"/>
</radialGradient>
<radialGradient id="paint3_radial" cx="0" cy="0" r="1" gradientUnits="userSpaceOnUse" gradientTransform="translate(30.0326 3.83814) scale(35.5693 35.8229)">
<stop stop-color="#BCBEC0"/>
<stop offset="0.4152" stop-color="#545557"/>
<stop offset="1"/>
</radialGradient>
<radialGradient id="paint4_radial" cx="0" cy="0" r="1" gradientUnits="userSpaceOnUse" gradientTransform="translate(30.0329 3.83829) scale(35.5693 35.8229)">
<stop stop-color="#BCBEC0"/>
<stop offset="0.4152" stop-color="#545557"/>
<stop offset="1"/>
</radialGradient>
<radialGradient id="paint5_radial" cx="0" cy="0" r="1" gradientUnits="userSpaceOnUse" gradientTransform="translate(30.0326 3.83828) scale(35.5693 35.8229)">
<stop stop-color="#BCBEC0"/>
<stop offset="0.4152" stop-color="#545557"/>
<stop offset="1"/>
</radialGradient>
</defs>
</svg>
